# xmcd CD database file
#
# Track frame offsets:
#	182
#	54557
#	96482
#	147707
#
# Disc length: 2580 seconds
#
# Revision: 0
# Processed by: cddbd v1.4PL0 Copyright (c) Steve Scherf et al.
# Submitted via: CDex 1.50Beta7
#
DISCID=3c0a1204
DTITLE=Roland Sound Space System - El murmullo del arroyo
DYEAR=1997
DGENRE=New Age
TTITLE0=Río en calma
TTITLE1=Aguas curativas
TTITLE2=Noche estrellada
TTITLE3=Errante
EXTD=YEAR: 1997
EXTT0=
EXTT1=
EXTT2=
EXTT3=
PLAYORDER=
